<?xml version="1.0" standalone="no"?>
<!DOCTYPE svg PUBLIC "-//W3C//DTD SVG 20010904//EN"
 "http://www.w3.org/TR/2001/REC-SVG-20010904/DTD/svg10.dtd">
<svg version="1.0" xmlns="http://www.w3.org/2000/svg"
 width="299.000000pt" height="299.000000pt" viewBox="0 0 299.000000 299.000000"
 preserveAspectRatio="xMidYMid meet">

<g transform="translate(0.000000,299.000000) scale(0.100000,-0.100000)"
fill="#000000" stroke="none">
<path d="M1340 2691 c-19 -10 -57 -24 -84 -30 -27 -7 -54 -18 -60 -25 -6 -7
-27 -23 -47 -34 -53 -32 -139 -129 -155 -175 -43 -121 -56 -343 -29 -472 18
-86 18 -85 0 -85 -36 0 -44 -64 -19 -168 38 -160 43 -172 75 -179 27 -5 29 -9
29 -47 0 -57 23 -131 58 -186 40 -63 44 -87 36 -202 -6 -86 -10 -104 -32 -130
-46 -54 -165 -113 -371 -183 -108 -37 -244 -90 -301 -118 -90 -44 -108 -58
-127 -92 -38 -67 -111 -280 -100 -291 4 -5 2549 -6 2553 -1 7 7 -58 205 -82
252 -37 71 -60 92 -139 130 -82 39 -278 113 -385 145 -91 27 -175 68 -256 126
-57 40 -62 46 -68 90 -11 84 -7 207 9 234 50 86 73 146 80 205 5 53 10 65 24
65 27 0 47 30 61 90 6 30 18 78 26 106 8 28 14 63 14 77 0 39 -21 77 -42 77
-14 0 -18 5 -14 18 25 86 29 127 30 317 1 205 0 211 -24 260 -15 31 -39 59
-62 74 -30 19 -35 27 -27 38 13 14 -4 18 -73 14 -32 -2 -39 2 -52 27 -9 17
-29 34 -48 41 -18 7 -40 16 -48 20 -8 4 -45 8 -81 9 -36 2 -81 7 -100 12 -54
16 -130 11 -169 -9z"/>
</g>
</svg>
