<?xml version="1.0" standalone="no"?>
<!DOCTYPE svg PUBLIC "-//W3C//DTD SVG 20010904//EN"
 "http://www.w3.org/TR/2001/REC-SVG-20010904/DTD/svg10.dtd">
<svg version="1.0" xmlns="http://www.w3.org/2000/svg"
 width="298.000000pt" height="297.000000pt" viewBox="0 0 298.000000 297.000000"
 preserveAspectRatio="xMidYMid meet">

<g transform="translate(0.000000,297.000000) scale(0.100000,-0.100000)"
fill="#000000" stroke="none">
<path d="M1477 2684 c-4 -4 -39 -7 -79 -8 -54 -1 -85 -7 -118 -23 -131 -65
-299 -313 -350 -518 -19 -74 -24 -132 -30 -330 -9 -274 -13 -294 -94 -480 -30
-68 -62 -155 -72 -194 l-18 -70 33 -128 c18 -70 34 -136 35 -146 1 -15 -19
-26 -94 -53 -193 -69 -319 -149 -386 -246 -31 -46 -66 -138 -78 -205 l-5 -33
1279 0 c1038 0 1280 2 1280 13 0 33 -34 136 -62 189 -46 86 -127 156 -250 216
-57 27 -127 57 -155 67 -50 16 -53 18 -53 51 0 19 16 95 35 170 19 74 35 155
35 179 0 24 -15 92 -34 152 -68 216 -109 442 -121 668 -8 138 -19 192 -60 281
-41 90 -146 246 -204 304 -105 103 -212 150 -345 150 -45 0 -86 -3 -89 -6z"/>
</g>
</svg>
